<?xml version="1.0" encoding="iso-8859-1"?>
<!-- Generator: Adobe Illustrator 19.0.0, SVG Export Plug-In . SVG Version: 6.00 Build 0)  -->
<svg xmlns="http://www.w3.org/2000/svg" xmlns:xlink="http://www.w3.org/1999/xlink" version="1.1" id="Capa_1" x="0px" y="0px" viewBox="0 0 496 496" style="enable-background:new 0 0 496 496;" xml:space="preserve" width="512px" height="512px">
<g>
	<g>
		<g>
			<path d="M489.744,240.2l-131.56-29.336l-63.528-95.296c-1.484-2.225-3.982-3.56-6.656-3.56H48c-3.229,0-6.141,1.94-7.384,4.92     l-40,95.952c-0.346,0.88-0.533,1.815-0.552,2.76c0,0.112-0.064,0.208-0.064,0.32v112.048c0,4.418,3.582,8,8,8h16.64     c4.391,30.574,32.736,51.8,63.311,47.409c24.574-3.529,43.88-22.836,47.409-47.409h225.28     c4.391,30.574,32.736,51.8,63.311,47.409c24.574-3.529,43.88-22.836,47.409-47.409H488c4.418,0,8-3.582,8-8v-80     C496,244.261,493.4,241.016,489.744,240.2z M299.72,152.008l37.328,56H200v-56H299.72z M53.336,128.008H283.72l5.328,8H50     L53.336,128.008z M80,368.008c-22.091,0-40-17.909-40-40c0-22.091,17.909-40,40-40c22.091,0,40,17.909,40,40     C119.974,350.088,102.08,367.981,80,368.008z M184,320.008h-48.64c-4.391-30.575-32.736-51.8-63.311-47.409     c-24.574,3.529-43.88,22.835-47.409,47.409H16l0-96h168V320.008z M184,208.008H20l23.336-56H184V208.008z M416,368.008     c-22.091,0-40-17.909-40-40c0-22.091,17.909-40,40-40c22.091,0,40,17.909,40,40C455.974,350.088,438.08,367.981,416,368.008z      M480,320.008h-8.64c-4.391-30.575-32.736-51.8-63.311-47.409c-24.574,3.529-43.88,22.835-47.409,47.409H200v-96h143.6     l136.4,30.4V320.008z" fill="#222222"/>
			<path d="M80,304.008c-13.255,0-24,10.745-24,24s10.745,24,24,24s24-10.745,24-24S93.255,304.008,80,304.008z M80,336.008     c-4.418,0-8-3.582-8-8s3.582-8,8-8s8,3.582,8,8S84.418,336.008,80,336.008z" fill="#222222"/>
			<path d="M416,304.008c-13.255,0-24,10.745-24,24s10.745,24,24,24s24-10.745,24-24S429.255,304.008,416,304.008z M416,336.008     c-4.418,0-8-3.582-8-8s3.582-8,8-8s8,3.582,8,8S420.418,336.008,416,336.008z" fill="#222222"/>
			<path d="M248,240.008h-32c-4.418,0-8,3.582-8,8s3.582,8,8,8h32c4.418,0,8-3.582,8-8S252.418,240.008,248,240.008z" fill="#222222"/>
			<path d="M32,248.008h40c4.418,0,8-3.582,8-8s-3.582-8-8-8H32c-4.418,0-8,3.582-8,8S27.582,248.008,32,248.008z" fill="#222222"/>
		</g>
	</g>
</g>
<g>
</g>
<g>
</g>
<g>
</g>
<g>
</g>
<g>
</g>
<g>
</g>
<g>
</g>
<g>
</g>
<g>
</g>
<g>
</g>
<g>
</g>
<g>
</g>
<g>
</g>
<g>
</g>
<g>
</g>
</svg>
